<?xml version="1.0" encoding="utf-8"?>
<!-- Generator: Adobe Illustrator 25.2.3, SVG Export Plug-In . SVG Version: 6.00 Build 0)  -->
<svg version="1.1" id="Layer_1" xmlns="http://www.w3.org/2000/svg" xmlns:xlink="http://www.w3.org/1999/xlink" x="0px" y="0px"
	 viewBox="0 0 1746 385" style="enable-background:new 0 0 1746 385;" xml:space="preserve">
<style type="text/css">
	.st0{enable-background:new    ;}
	.st1{fill:none;stroke:#707070;}
</style>
<g class="st0">
	<path class="st1" d="M13.8,64.7h35.1v191.4h57.7V288H13.8V64.7z"/>
	<path class="st1" d="M157,158.8h48.2v31.9H157v65.4h60.6V288h-95.7V64.7h95.7v31.9H157V158.8z"/>
	<path class="st1" d="M352.9,288h-35.4l-6.1-40.5h-43.1l-6.1,40.5H230l35.7-223.3h51.4L352.9,288z M272.8,217.2h33.8l-16.9-112.9
		L272.8,217.2z"/>
	<path class="st1" d="M346.8,64.7h108.5v31.9h-36.7V288h-35.1V96.6h-36.7V64.7z"/>
	<path class="st1" d="M505.7,288h-35.1V64.7h35.1v95.7h39.9V64.7h35.7V288h-35.7v-95.7h-39.9V288z"/>
	<path class="st1" d="M641.9,158.8H690v31.9h-48.2v65.4h60.6V288h-95.7V64.7h95.7v31.9h-60.6V158.8z"/>
	<path class="st1" d="M797.5,288c-1.9-5.7-3.2-9.3-3.2-27.4v-35.1c0-20.7-7-28.4-23-28.4h-12.1V288h-35.1V64.7h53
		c36.4,0,52,16.9,52,51.4v17.5c0,23-7.3,38-23,45.3c17.5,7.3,23.3,24.2,23.3,47.5v34.5c0,10.8,0.3,18.8,3.8,27.1H797.5z M759.2,96.6
		v68.6H773c13.1,0,21.1-5.7,21.1-23.6v-22c0-16-5.4-23-17.9-23H759.2z"/>
	<path class="st1" d="M1003.6,204.7v29.7c0,35.7-17.9,56.1-52.3,56.1S899,270.1,899,234.4V118.3c0-35.7,17.9-56.1,52.3-56.1
		s52.3,20.4,52.3,56.1V140h-33.2v-23.9c0-16-7-22-18.2-22s-18.2,6.1-18.2,22v120.6c0,16,7,21.7,18.2,21.7s18.2-5.7,18.2-21.7v-31.9
		H1003.6z"/>
	<path class="st1" d="M1060.1,158.8h48.2v31.9h-48.2v65.4h60.6V288H1025V64.7h95.7v31.9h-60.6V158.8z"/>
	<path class="st1" d="M1215.7,288c-1.9-5.7-3.2-9.3-3.2-27.4v-35.1c0-20.7-7-28.4-23-28.4h-12.1V288h-35.1V64.7h53
		c36.4,0,52,16.9,52,51.4v17.5c0,23-7.3,38-23,45.3c17.5,7.3,23.3,24.2,23.3,47.5v34.5c0,10.8,0.3,18.8,3.8,27.1H1215.7z
		 M1177.5,96.6v68.6h13.7c13.1,0,21.1-5.7,21.1-23.6v-22c0-16-5.4-23-17.9-23H1177.5z"/>
	<path class="st1" d="M1384.2,288h-35.4l-6.1-40.5h-43.1l-6.1,40.5h-32.2l35.7-223.3h51.4L1384.2,288z M1304.1,217.2h33.8
		L1321,104.3L1304.1,217.2z"/>
	<path class="st1" d="M1474.8,223.2l23.9-158.5h48.8V288h-33.2V127.9L1490.1,288h-33.2l-26.2-157.9V288h-30.6V64.7h48.8
		L1474.8,223.2z"/>
	<path class="st1" d="M1573,64.7h35.1V288H1573V64.7z"/>
	<path class="st1" d="M1735.4,204.7v29.7c0,35.7-17.9,56.1-52.3,56.1s-52.3-20.4-52.3-56.1V118.3c0-35.7,17.9-56.1,52.3-56.1
		s52.3,20.4,52.3,56.1V140h-33.2v-23.9c0-16-7-22-18.2-22s-18.2,6.1-18.2,22v120.6c0,16,7,21.7,18.2,21.7s18.2-5.7,18.2-21.7v-31.9
		H1735.4z"/>
</g>
</svg>
