<?xml version="1.0" encoding="utf-8"?>
<!-- Generator: Adobe Illustrator 25.2.3, SVG Export Plug-In . SVG Version: 6.00 Build 0)  -->
<svg version="1.1" id="Layer_1" xmlns="http://www.w3.org/2000/svg" xmlns:xlink="http://www.w3.org/1999/xlink" x="0px" y="0px"
	 viewBox="0 0 1682 385" style="enable-background:new 0 0 1682 385;" xml:space="preserve">
<style type="text/css">
	.st0{enable-background:new    ;}
	.st1{fill:none;stroke:#707070;}
</style>
<g class="st0">
	<path class="st1" d="M117.8,119.9v29c0,35.7-17.2,55.2-52.3,55.2H48.9V288H13.8V64.7h51.7C100.5,64.7,117.8,84.2,117.8,119.9z
		 M48.9,96.6v75.6h16.6c11.2,0,17.2-5.1,17.2-21.1v-33.5c0-16-6.1-21.1-17.2-21.1H48.9z"/>
	<path class="st1" d="M134,64.7h35.1v191.4h57.7V288H134V64.7z"/>
	<path class="st1" d="M355.7,288h-35.4l-6.1-40.5h-43.1l-6.1,40.5h-32.2l35.7-223.3H320L355.7,288z M275.7,217.2h33.8l-16.9-112.9
		L275.7,217.2z"/>
	<path class="st1" d="M419.2,62.1c34.1,0,51.7,20.4,51.7,56.1v7h-33.2v-9.3c0-16-6.4-22-17.5-22s-17.5,6.1-17.5,22
		c0,45.9,68.6,54.5,68.6,118.3c0,35.7-17.9,56.1-52.3,56.1c-34.5,0-52.3-20.4-52.3-56.1v-13.7h33.2v15.9c0,16,7,21.7,18.2,21.7
		c11.2,0,18.2-5.7,18.2-21.7c0-45.9-68.6-54.5-68.6-118.3C367.5,82.6,385.1,62.1,419.2,62.1z"/>
	<path class="st1" d="M481.1,64.7h108.5v31.9h-36.7V288h-35.1V96.6h-36.7V64.7z"/>
	<path class="st1" d="M604.9,64.7h35.1V288h-35.1V64.7z"/>
	<path class="st1" d="M767.2,204.7v29.7c0,35.7-17.9,56.1-52.3,56.1s-52.3-20.4-52.3-56.1V118.3c0-35.7,17.9-56.1,52.3-56.1
		s52.3,20.4,52.3,56.1V140H734v-23.9c0-16-7-22-18.2-22s-18.2,6.1-18.2,22v120.6c0,16,7,21.7,18.2,21.7s18.2-5.7,18.2-21.7v-31.9
		H767.2z"/>
	<path class="st1" d="M939.8,204.7v29.7c0,35.7-17.9,56.1-52.3,56.1s-52.3-20.4-52.3-56.1V118.3c0-35.7,17.9-56.1,52.3-56.1
		s52.3,20.4,52.3,56.1V140h-33.2v-23.9c0-16-7-22-18.2-22s-18.2,6.1-18.2,22v120.6c0,16,7,21.7,18.2,21.7s18.2-5.7,18.2-21.7v-31.9
		H939.8z"/>
	<path class="st1" d="M996.3,158.8h48.2v31.9h-48.2v65.4h60.6V288h-95.7V64.7h95.7v31.9h-60.6V158.8z"/>
	<path class="st1" d="M1151.9,288c-1.9-5.7-3.2-9.3-3.2-27.4v-35.1c0-20.7-7-28.4-23-28.4h-12.1V288h-35.1V64.7h53
		c36.4,0,52,16.9,52,51.4v17.5c0,23-7.3,38-23,45.3c17.5,7.3,23.3,24.2,23.3,47.5v34.5c0,10.8,0.3,18.8,3.8,27.1H1151.9z
		 M1113.6,96.6v68.6h13.7c13.1,0,21.1-5.7,21.1-23.6v-22c0-16-5.4-23-17.9-23H1113.6z"/>
	<path class="st1" d="M1320.4,288h-35.4l-6.1-40.5h-43.1l-6.1,40.5h-32.2l35.7-223.3h51.4L1320.4,288z M1240.3,217.2h33.8
		l-16.9-112.9L1240.3,217.2z"/>
	<path class="st1" d="M1411,223.2l23.9-158.5h48.8V288h-33.2V127.9L1426.3,288h-33.2l-26.2-157.9V288h-30.6V64.7h48.8L1411,223.2z"
		/>
	<path class="st1" d="M1509.2,64.7h35.1V288h-35.1V64.7z"/>
	<path class="st1" d="M1671.6,204.7v29.7c0,35.7-17.9,56.1-52.3,56.1s-52.3-20.4-52.3-56.1V118.3c0-35.7,17.9-56.1,52.3-56.1
		s52.3,20.4,52.3,56.1V140h-33.2v-23.9c0-16-7-22-18.2-22s-18.2,6.1-18.2,22v120.6c0,16,7,21.7,18.2,21.7s18.2-5.7,18.2-21.7v-31.9
		H1671.6z"/>
</g>
</svg>
